<svg class="settings-icon" xmlns="http://www.w3.org/2000/svg" fill="none" viewBox="0 0 24 24"><g clip-path="url(#a)"><path fill="#F9F9F9" d="m21.3 9.6-1.9-.7 1-1.8A1 1 0 0 0 20 6L18 3.9a1 1 0 0 0-1.1-.2l-1.8.9-.7-2a1 1 0 0 0-.9-.6h-3a1 1 0 0 0-1 .7L9 4.6l-1.8-1A1 1 0 0 0 6 4L3.9 6a1 1 0 0 0-.2 1.2l.9 1.7-2 .7a1 1 0 0 0-.6.9v3a1 1 0 0 0 .7 1l1.9.6-1 1.8A1 1 0 0 0 4 18L6 20.1a1 1 0 0 0 1.2.2l1.7-.9.7 2a1 1 0 0 0 1 .6h3a1 1 0 0 0 .9-.7l.6-1.9 1.8 1A1 1 0 0 0 18 20l2.1-2.1a1 1 0 0 0 .2-1.1l-.9-1.8 2-.7a1 1 0 0 0 .6-.9v-3a1 1 0 0 0-.7-1ZM20 12.8l-1.2.4a2 2 0 0 0-1.2 2.8l.6 1.1-1 1.1-1.2-.6a2 2 0 0 0-2.8 1.2l-.4 1.2h-1.6l-.4-1.2A2 2 0 0 0 8 17.6l-1.1.6-1.1-1 .6-1.2a2 2 0 0 0-1.2-2.8L4 12.8v-1.6l1.2-.4A2 2 0 0 0 6.4 8l-.6-1.1 1-1.1 1.2.6a2 2 0 0 0 2.8-1.2l.4-1.2h1.6l.4 1.2A2 2 0 0 0 16 6.4l1.1-.6 1.1 1-.6 1.2a2 2 0 0 0 1.2 2.8l1.2.4v1.6ZM12 8a4 4 0 1 0 0 8 4 4 0 0 0 0-8Zm0 6a2 2 0 1 1 0-4 2 2 0 0 1 0 4Z"/></g><defs><clipPath id="a"><path fill="#fff" d="M0 0h24v24H0z"/></clipPath></defs></svg>